$MeshFormat
2.2 0 8
$EndMeshFormat
$PhysicalNames
4
2 1 "walls"
2 2 "lid"
2 3 "frontAndBack"
3 10 "fluid"
$EndPhysicalNames
$Nodes
18
1 0 0 0
2 0.5 0 0
3 1 0 0
4 0 0.5 0
5 0.5 0.5 0
6 1 0.5 0
7 0 1 0
8 0.5 1 0
9 1 1 0
10 0 0 0.1
11 0.5 0 0.1
12 1 0 0.1
13 0 0.5 0.1
14 0.5 0.5 0.1
15 1 0.5 0.1
16 0 1 0.1
17 0.5 1 0.1
18 1 1 0.1
$EndNodes
$Elements
20
1 3 2 1 1 1 2 11 10
2 3 2 1 1 2 3 12 11
3 3 2 1 2 1 10 13 4
4 3 2 1 2 4 13 16 7
5 3 2 1 3 3 6 15 12
6 3 2 1 3 6 9 18 15
7 3 2 2 4 7 16 17 8
8 3 2 2 4 8 17 18 9
9 3 2 3 5 1 4 5 2
10 3 2 3 5 2 5 6 3
11 3 2 3 5 4 7 8 5
12 3 2 3 5 5 8 9 6
13 3 2 3 6 10 11 14 13
14 3 2 3 6 11 12 15 14
15 3 2 3 6 13 14 17 16
16 3 2 3 6 14 15 18 17
17 5 2 10 10 1 2 5 4 10 11 14 13
18 5 2 10 10 2 3 6 5 11 12 15 14
19 5 2 10 10 4 5 8 7 13 14 17 16
20 5 2 10 10 5 6 9 8 14 15 18 17
$EndElements
